<svg width="130" height="50" viewBox="0 0 130 50" fill="none" xmlns="http://www.w3.org/2000/svg">
<g clip-path="url(#clip0_2_401)">
<path d="M41.8975 0.0610352H7.98048C3.57298 0.0610352 0 3.63402 0 8.04151V41.9585C0 46.366 3.57298 49.939 7.98048 49.939H41.8975C46.305 49.939 49.878 46.366 49.878 41.9585V8.04151C49.878 3.63402 46.305 0.0610352 41.8975 0.0610352Z" fill="#07A081"/>
<path d="M18.6254 33.7087H25.6991V26.9303H27.8319C29.3286 26.9303 30.7639 26.3357 31.8222 25.2774C32.8805 24.2191 33.4751 22.7837 33.4751 21.2871C33.4751 19.7904 32.8805 18.355 31.8222 17.2967C30.7639 16.2384 29.3286 15.6439 27.8319 15.6439H18.6254V33.7087ZM29.3622 37.3218H14.9634V12.0317H27.8319C30.1747 11.9984 32.4429 12.8557 34.1781 14.4302C35.9132 16.0047 36.9861 18.1792 37.1799 20.5142C37.3737 22.8493 36.674 25.1708 35.2221 27.0099C33.7702 28.8489 31.6744 30.0683 29.3582 30.4217L29.3622 37.3218Z" fill="white"/>
<path d="M66.5312 33.9781H69.1249V27.8331H72.4787C73.4822 27.8534 74.477 27.6431 75.3866 27.2186C76.1976 26.8361 76.88 26.2261 77.3508 25.4629C77.8344 24.6393 78.0764 23.6963 78.0491 22.7416C78.078 21.7798 77.8361 20.8292 77.3508 19.9983C76.88 19.2351 76.1976 18.6252 75.3866 18.2426C74.477 17.8181 73.4822 17.6079 72.4787 17.6281H66.5312V33.9781ZM69.1249 25.5288V19.9325H72.5445C73.3238 19.8972 74.0866 20.1645 74.6733 20.6786C74.9476 20.9404 75.1621 21.2582 75.3022 21.6105C75.4423 21.9627 75.5048 22.3411 75.4853 22.7196C75.502 23.0979 75.4383 23.4754 75.2983 23.8273C75.1583 24.1791 74.9453 24.4972 74.6733 24.7607C74.0929 25.2875 73.3277 25.5636 72.5445 25.5288H69.1249ZM85.1637 34.2415C86.2782 34.2681 87.3776 33.979 88.3349 33.4075C89.1714 32.9207 89.8343 32.1838 90.2303 31.3007L88.2112 30.3131C87.9147 30.8144 87.5047 31.2391 87.0141 31.553C86.4658 31.8963 85.8283 32.0698 85.1816 32.0518C84.302 32.0688 83.4491 31.7491 82.7975 31.158C82.4646 30.8501 82.1961 30.479 82.0078 30.0665C81.8194 29.654 81.7148 29.2081 81.7001 28.7549H90.5186C90.5643 28.5676 90.5937 28.3767 90.6064 28.1843C90.621 27.9794 90.6283 27.7819 90.6283 27.5917C90.637 26.6043 90.4074 25.6294 89.9589 24.7497C89.5182 23.8852 88.8506 23.1569 88.0277 22.6428C87.1052 22.0879 86.0422 21.8108 84.9662 21.8448C83.914 21.8288 82.878 22.105 81.9735 22.6428C81.0916 23.174 80.3682 23.9318 79.8786 24.8375C79.3554 25.8114 79.0909 26.9033 79.1105 28.0087C79.0925 29.1164 79.3594 30.2101 79.8856 31.1849C80.3869 32.1069 81.1257 32.878 82.0253 33.4185C82.9749 33.9785 84.0615 34.2635 85.1637 34.2415ZM84.9642 23.9267C85.7425 23.906 86.4982 24.1894 87.071 24.7168C87.3552 24.9812 87.5833 25.3001 87.7416 25.6545C87.9 26.0089 87.9854 26.3916 87.9928 26.7797H81.74C81.8378 25.9626 82.2369 25.2113 82.8593 24.6729C83.4491 24.179 84.197 23.9141 84.9662 23.9267H84.9642ZM91.1989 33.9781H94.1178L96.8172 30.0058L99.4946 33.9781H102.413L98.2656 28.0307L102.435 22.1051H99.5166L96.8172 26.0335L94.1178 22.1071H91.1989L95.3468 28.0326L91.1989 33.9781ZM108.822 34.2415C109.936 34.2681 111.036 33.979 111.993 33.4075C112.83 32.9207 113.492 32.1838 113.888 31.3007L111.869 30.3131C111.573 30.8144 111.163 31.2391 110.672 31.553C110.124 31.8963 109.486 32.0698 108.84 32.0518C107.957 32.0727 107.101 31.7546 106.446 31.163C106.113 30.855 105.844 30.484 105.656 30.0715C105.468 29.659 105.363 29.2131 105.348 28.7599H114.171C114.216 28.5726 114.246 28.3816 114.258 28.1893C114.273 27.9844 114.28 27.7869 114.28 27.5967C114.293 26.6085 114.067 25.6319 113.622 24.7497C113.181 23.8852 112.514 23.1569 111.691 22.6428C110.768 22.0879 109.705 21.8108 108.629 21.8448C107.577 21.8288 106.541 22.105 105.637 22.6428C104.755 23.174 104.031 23.9318 103.542 24.8375C103.019 25.8114 102.754 26.9033 102.774 28.0087C102.755 29.1162 103.021 30.2099 103.547 31.1849C104.047 32.1065 104.785 32.8776 105.683 33.4185C106.633 33.9785 107.72 34.2635 108.822 34.2415ZM108.622 23.9267C109.401 23.906 110.156 24.1894 110.729 24.7168C111.013 24.9812 111.241 25.3001 111.4 25.6545C111.558 26.0089 111.644 26.3916 111.651 26.7797H105.396C105.494 25.9626 105.893 25.2113 106.515 24.6729C107.106 24.1786 107.854 23.9136 108.624 23.9267H108.622ZM116.262 33.9781H118.742V17.3647H116.262V33.9781ZM125.593 34.2415C126.388 34.258 127.177 34.1046 127.908 33.7916C128.53 33.527 129.066 33.0937 129.455 32.5406C129.825 31.9938 130.017 31.3461 130.004 30.6862C130.019 29.9056 129.736 29.1487 129.214 28.5683C128.6 27.9243 127.814 27.4709 126.949 27.2625L125.018 26.6959C124.655 26.5801 124.308 26.4178 123.987 26.2131C123.831 26.1169 123.704 25.9806 123.619 25.8184C123.534 25.6562 123.494 25.4742 123.504 25.2914C123.497 25.0966 123.537 24.9031 123.621 24.7274C123.706 24.5516 123.831 24.3987 123.987 24.2818C124.365 24.0156 124.822 23.8842 125.284 23.9087C125.888 23.9015 126.481 24.0775 126.984 24.4135C127.481 24.7434 127.865 25.2166 128.087 25.7702L129.996 24.8724C129.667 23.948 129.034 23.1626 128.2 22.6448C127.333 22.1069 126.328 21.8299 125.307 21.8468C124.559 21.8351 123.817 21.9887 123.135 22.2967C122.528 22.5662 122.004 22.9946 121.62 23.5366C121.248 24.0863 121.056 24.7383 121.072 25.4021C121.058 26.1668 121.327 26.9096 121.829 27.487C122.449 28.1405 123.246 28.5983 124.123 28.8038L125.989 29.3305C126.369 29.4328 126.731 29.5918 127.064 29.8023C127.227 29.9012 127.359 30.0421 127.448 30.2101C127.537 30.3782 127.579 30.5671 127.569 30.757C127.575 30.9679 127.528 31.177 127.432 31.3649C127.336 31.5529 127.195 31.7136 127.02 31.8324C126.599 32.1134 126.1 32.2531 125.594 32.2314C124.922 32.2364 124.265 32.029 123.717 31.6388C123.139 31.2281 122.68 30.6725 122.385 30.0278L120.475 30.9256C120.83 31.921 121.505 32.7703 122.396 33.3397C123.348 33.9518 124.461 34.2658 125.593 34.2415Z" fill="white"/>
</g>
<defs>
<clipPath id="clip0_2_401">
<rect width="130" height="50" fill="white"/>
</clipPath>
</defs>
</svg>
